# xmcd
#
# Track frame offsets: 
#        150
#        19863
#        34304
#        52417
#        71333
#        92488
#        112663
#        131224
#        149851
#        166490
#        184549
#        200413
#        217643
#        233222
#        251895
#        272577
#        294146
#
# Disc length: 4174 seconds
#
# Revision: 0
# Processed by: cddbd v1.5.2PL0 Copyright (c) Steve Scherf et al.
# Submitted via: ExactAudioCopyFreeDBPlugin 1.0
#
DISCID=fb104c11
DTITLE=蔡國權 - 蔡國權-金曲精選 Vol 1
DYEAR=1900
DGENRE=中文流行曲
TTITLE0=天意人心
TTITLE1=烽烟情焰
TTITLE2=不裝飾你的夢
TTITLE3=堆梦
TTITLE4=怀念你一世纪
TTITLE5=用手走路
TTITLE6=人墙
TTITLE7=最后一班渡轮
TTITLE8=不應再猶豫
TTITLE9=梦里可是谁
TTITLE10=星夜
TTITLE11=再見也許不再會
TTITLE12=冲破万重浪
TTITLE13=投向未来
TTITLE14=我的爱神
TTITLE15=伤心一吻
TTITLE16=从来没怪你别离
EXTD=
EXTT0=
EXTT1=
EXTT2=
EXTT3=
EXTT4=
EXTT5=
EXTT6=
EXTT7=
EXTT8=
EXTT9=
EXTT10=
EXTT11=
EXTT12=
EXTT13=
EXTT14=
EXTT15=
EXTT16=
PLAYORDER=
